<?xml version="1.0" encoding="UTF-8" standalone="no"?>
<!-- Created with Inkscape (http://www.inkscape.org/) -->

<svg
   width="210mm"
   height="297mm"
   viewBox="0 0 210 297"
   version="1.1"
   id="svg5"
   inkscape:version="1.1.2 (b8e25be833, 2022-02-05)"
   sodipodi:docname="logo_0.0.1.svg"
   xmlns:inkscape="http://www.inkscape.org/namespaces/inkscape"
   xmlns:sodipodi="http://sodipodi.sourceforge.net/DTD/sodipodi-0.dtd"
   xmlns="http://www.w3.org/2000/svg"
   xmlns:svg="http://www.w3.org/2000/svg">
  <sodipodi:namedview
     id="namedview7"
     pagecolor="#ffffff"
     bordercolor="#666666"
     borderopacity="1.0"
     inkscape:pageshadow="2"
     inkscape:pageopacity="0.0"
     inkscape:pagecheckerboard="0"
     inkscape:document-units="mm"
     showgrid="false"
     inkscape:zoom="0.77985109"
     inkscape:rotation="90"
     inkscape:cx="302.62188"
     inkscape:cy="541.7701"
     inkscape:window-width="1440"
     inkscape:window-height="847"
     inkscape:window-x="-8"
     inkscape:window-y="-8"
     inkscape:window-maximized="1"
     inkscape:current-layer="layer1" />
  <defs
     id="defs2">
    <inkscape:path-effect
       effect="spiro"
       id="path-effect5588"
       is_visible="true"
       lpeversion="1" />
  </defs>
  <g
     inkscape:label="Layer 1"
     inkscape:groupmode="layer"
     id="layer1">
    <g
       id="g10856"
       transform="translate(11.535322,14.249515)">
      <ellipse
         style="fill:#ff0000;fill-rule:evenodd;stroke-width:0.264583"
         id="path191"
         cx="59.952156"
         cy="223.60225"
         rx="7.294395"
         ry="6.9551206" />
      <path
         style="fill:#ff0000;stroke:none;stroke-width:0.264583px;stroke-linecap:butt;stroke-linejoin:miter;stroke-opacity:1"
         d="m 47.380855,222.86995 9.716074,7.43699 2.039176,0.23991 1.079566,-4.91802 z"
         id="path308" />
      <path
         id="path398"
         style="fill:#ff0000;stroke:none;stroke-width:0.277105"
         d="m 56.077196,191.80243 a 15.413772,16.973108 0 0 0 -15.41353,16.97329 15.413772,16.973108 0 0 0 15.41353,16.97329 15.413772,16.973108 0 0 0 15.414045,-16.97329 15.413772,16.973108 0 0 0 -0.03359,-1.09758 11.095517,12.338811 0 0 1 -10.34252,7.87521 11.095517,12.338811 0 0 1 -11.095447,-12.3389 11.095517,12.338811 0 0 1 6.842993,-11.38956 15.413772,16.973108 0 0 0 -0.785482,-0.0225 z" />
      <path
         id="path504"
         style="fill:#ff0000;stroke:none;stroke-width:0.250197"
         d="M 55.909019,199.65504 A 27.288971,15.753369 0 0 0 44.382011,212.51417 27.288971,15.753369 0 0 0 71.67094,228.2676 27.288971,15.753369 0 0 0 98.959865,212.51417 27.288971,15.753369 0 0 0 89.549535,200.61386 17.525585,11.138745 0 0 1 72.944286,208.2182 17.525585,11.138745 0 0 1 55.909019,199.65504 Z" />
      <ellipse
         style="fill:#ff0000;stroke:none;stroke-width:0.279309"
         id="path980"
         cx="108.55613"
         cy="200.01918"
         rx="15.353797"
         ry="12.295033" />
      <path
         style="fill:#ff0000;stroke:none;stroke-width:0.264583px;stroke-linecap:butt;stroke-linejoin:miter;stroke-opacity:1"
         d="m 47.380855,222.86995 9.744432,-5.69207 -2.714191,7.3368 z"
         id="path1826" />
      <rect
         style="fill:#ff0000;stroke:none;stroke-width:0.264583"
         id="rect2340"
         width="18.592487"
         height="16.913166"
         x="84.92569"
         y="207.39619" />
      <ellipse
         style="fill:#ff0000;stroke:none;stroke-width:0.264583"
         id="path2444"
         cx="105.42945"
         cy="217.77161"
         rx="9.4148588"
         ry="6.6582556" />
      <path
         style="fill:#ff0000;stroke:none;stroke-width:0.264583px;stroke-linecap:butt;stroke-linejoin:miter;stroke-opacity:1"
         d="m 108.43619,223.94951 h 16.67326 l 0.35985,-27.82875 -5.27786,-3.7185 -14.63409,19.67205 z"
         id="path2479" />
      <ellipse
         style="fill:#ff0000;stroke:none;stroke-width:0.449048"
         id="path2569"
         cx="105.59907"
         cy="218.10217"
         rx="10.008588"
         ry="6.9039998" />
      <path
         style="fill:#ff0000;stroke:none;stroke-width:0.264583px;stroke-linecap:butt;stroke-linejoin:miter;stroke-opacity:1"
         d="m 109.20387,224.51468 5.21634,-0.59373 -3.98647,-4.49538 z"
         id="path2764" />
      <path
         style="fill:#ff0000;stroke:none;stroke-width:0.264583px;stroke-linecap:butt;stroke-linejoin:miter;stroke-opacity:1"
         d="m 101.9943,224.47227 -4.410568,-0.4665 3.350338,-2.2901 z"
         id="path2832" />
      <path
         style="fill:#ff0000;stroke:none;stroke-width:0.264583px;stroke-linecap:butt;stroke-linejoin:miter;stroke-opacity:1"
         d="m 88.168876,224.98119 3.944061,-0.97542 -2.120463,-2.24769 z"
         id="path2900" />
      <path
         style="fill:#ff0000;stroke:none;stroke-width:0.264583px;stroke-linecap:butt;stroke-linejoin:miter;stroke-opacity:1"
         d="m 118.44909,190.62968 7.67608,2.62937 -0.80577,5.42839 z"
         id="path2968" />
      <path
         id="path3174"
         style="fill:#ff0000;stroke:none;stroke-width:0.309452px;stroke-linecap:butt;stroke-linejoin:miter;stroke-opacity:1"
         d="m 95.650776,193.17411 a 1.2506727,11.423571 58.769004 0 1 -7.223272,5.52757 1.2506727,11.423571 58.769004 0 1 -10.507926,5.68965 l -0.02618,0.0179 -7.715373,5.44163 27.151376,0.70538 -0.634319,-17.38203 z" />
      <path
         id="path3610"
         style="fill:#ff0000;stroke:none;stroke-width:0.263067px;stroke-linecap:butt;stroke-linejoin:miter;stroke-opacity:1"
         d="m 58.051391,189.93414 -6.566574,12.52792 22.136007,12.97698 7.21128,-11.61996 -0.709072,-0.43667 a 13.438396,3.8977813 31.618862 0 1 -12.249874,-4.1491 13.438396,3.8977813 31.618862 0 1 -9.821767,-9.29917 z" />
      <ellipse
         style="fill:#ff0000;stroke:none;stroke-width:0.303231"
         id="path4094"
         cx="-5.6026487"
         cy="189.53291"
         rx="4.0656071"
         ry="19.174938"
         transform="matrix(0.97530728,-0.22085225,0.3022344,0.95323364,0,0)" />
      <ellipse
         style="fill:#ff0000;stroke:none;stroke-width:0.347821"
         id="path4198"
         cx="0.22451976"
         cy="180.37383"
         rx="4.9180131"
         ry="11.75525"
         transform="rotate(-15)" />
      <ellipse
         style="fill:#ff0000;stroke:none;stroke-width:0.27368"
         id="path4302"
         cx="47.434772"
         cy="192.02917"
         rx="3.5411742"
         ry="12.298688" />
      <ellipse
         style="fill:#ff0000;stroke:none;stroke-width:0.264583"
         id="path4408"
         cx="52.205811"
         cy="201.14717"
         rx="3.9440627"
         ry="6.6582556" />
      <ellipse
         style="fill:#ff0000;stroke:none;stroke-width:0.264583"
         id="path4410"
         cx="52.891159"
         cy="194.82428"
         rx="3.0178578"
         ry="4.8307514" />
      <path
         style="fill:#ff0000;stroke:none;stroke-width:0.264583px;stroke-linecap:butt;stroke-linejoin:miter;stroke-opacity:1"
         d="m 44.784189,184.90442 c 0,-0.42409 -1.781188,-10.34786 -1.781188,-10.34786 l 3.138287,4.07129 z"
         id="path4445" />
      <path
         style="fill:#ff0000;stroke:none;stroke-width:0.264583px;stroke-linecap:butt;stroke-linejoin:miter;stroke-opacity:1"
         d="m 43.829983,162.80919 -28.393008,11.74737 28.901918,-4.62261 z"
         id="path4626"
         sodipodi:nodetypes="cccc" />
      <ellipse
         style="fill:#ff0000;stroke:none;stroke-width:0.322018"
         id="path4891"
         cx="-53.96442"
         cy="186.17746"
         rx="9.3045721"
         ry="1.3211843"
         transform="matrix(0.99111499,-0.13300779,0.47173036,0.88174286,0,0)" />
      <ellipse
         style="fill:#ff0000;stroke:none;stroke-width:0.258734"
         id="path5075"
         cx="5.7829976"
         cy="222.53755"
         rx="8.2555981"
         ry="6.507462"
         transform="matrix(0.93860881,-0.34498335,0.1917166,0.98145033,0,0)" />
      <ellipse
         style="fill:#ff0000;stroke:none;stroke-width:0.349717"
         id="path5179"
         cx="-249.78543"
         cy="269.63495"
         rx="11.139291"
         ry="4.2966604"
         transform="matrix(0.8569028,-0.51547802,0.93600546,0.35198549,0,0)" />
      <path
         style="fill:none;stroke:none;stroke-width:0.264583px;stroke-linecap:butt;stroke-linejoin:miter;stroke-opacity:1"
         d="m 46.395743,223.34843 c 0.297029,-0.006 0.597574,0.0148 0.890595,0.0636 0.632412,0.1054 -0.20733,-0.016 0.296865,0.0848 0.101074,0.0202 0.218729,0.0264 0.318069,0.0636 0.07399,0.0277 0.139832,0.0739 0.212048,0.10603 0.269586,0.11981 0.547261,0.23806 0.805775,0.38168 0.164976,0.0916 0.353676,0.24765 0.487706,0.38168 0.01802,0.018 0.02201,0.0483 0.04241,0.0636 0.02883,0.0216 0.07603,0.001 0.106021,0.0212 0.01315,0.009 0.0054,0.0424 0.02122,0.0424 0.06746,0 0.06361,-0.41752 0.06361,-0.4665 0,-0.34064 0.01397,-0.67949 -0.04241,-1.01782 -0.01693,-0.10152 -0.05899,-0.19725 -0.08482,-0.29687 -0.08021,-0.30938 -0.171403,-0.59784 -0.296866,-0.89059 -0.03972,-0.0927 -0.06136,-0.20754 -0.106023,-0.29687 -0.0074,-0.0147 -0.133692,-0.002 -0.190842,0.0212 -0.458676,0.18347 -0.861724,0.48657 -1.293484,0.72095 -0.299501,0.16259 -0.338913,0.16683 -0.636138,0.29687 -0.044,0.0193 -0.471233,0.19607 -0.572526,0.27566 -0.07109,0.0559 -0.113848,0.17746 -0.169635,0.23325 -0.0043,0.004 -0.104984,0.0785 -0.06361,0.10602 0.02942,0.0196 0.127963,0.0219 0.148431,0.0424 0.005,0.005 0,0.0141 0,0.0212 0.02119,0.0141 0.04241,0.0283 0.06361,0.0424 z"
         id="path5477" />
      <path
         style="fill:#ff0000;stroke:none;stroke-width:0.264583px;stroke-linecap:butt;stroke-linejoin:miter;stroke-opacity:1"
         d="m 43.692347,224.24939 c 2.236893,-1.09181 3.688508,-1.37944 3.688508,-1.37944 l -2.159127,-1.91923 z"
         id="path5892" />
      <ellipse
         style="fill:#ff0000;stroke:none;stroke-width:0.293109"
         id="path6117"
         cx="-240.09145"
         cy="213.4171"
         rx="8.7528143"
         ry="5.0095215"
         transform="matrix(0.71486296,-0.69926457,0.96874785,0.2480476,0,0)" />
      <path
         style="fill:#ff0000;stroke:none;stroke-width:0.264583px;stroke-linecap:butt;stroke-linejoin:miter;stroke-opacity:1"
         d="m 36.40529,215.58289 c 1.199515,-1.28947 4.828051,-4.10834 4.318256,-5.81765 2.878835,0.5098 0.11995,-0.62974 0.11995,-0.62974 l 2.219105,6.26746 z"
         id="path6416"
         sodipodi:nodetypes="ccccc" />
      <path
         style="fill:#ff0000;stroke:none;stroke-width:0.264583px;stroke-linecap:butt;stroke-linejoin:miter;stroke-opacity:1"
         d="m 45.20979,223.33925 c 1.185959,0.009 2.664077,-0.0115 3.204475,0.27274 0.540398,0.28427 0.371575,0.22628 0.371575,0.22628 l 0.302893,-2.35585 c 0,0 -5.064901,1.84775 -3.878943,1.85683 z"
         id="path7504"
         sodipodi:nodetypes="zzccz" />
      <path
         style="fill:#ff0000;stroke:none;stroke-width:0.289975px;stroke-linecap:butt;stroke-linejoin:miter;stroke-opacity:1"
         d="m 30.927431,209.6563 c 2.991446,-0.0758 8.461859,0.7461 11.452296,-0.16353 2.990437,-0.90963 5.544958,-16.41758 2.89243,-13.20783 -2.652527,3.20975 -14.242449,7.24576 -14.242449,7.24576 0,0 -3.093723,6.20145 -0.102277,6.1256 z"
         id="path8264"
         sodipodi:nodetypes="zzzcz" />
      <path
         style="fill:#800000;stroke:none;stroke-width:0.264583px;stroke-linecap:butt;stroke-linejoin:miter;stroke-opacity:1"
         d="m 29.940946,208.52639 c 0,0 3.801432,0.6238 5.555614,-0.42409 1.754183,-1.04789 3.922857,-6.02213 3.986472,-6.40381 0.06361,-0.38168 0.303628,-1.12429 0.127228,-2.45973 -0.1764,-1.33544 -2.232044,-2.96262 -3.647199,-4.02888 -1.415154,-1.06627 -3.332922,-1.91285 -4.665017,-2.2901 -1.332095,-0.37725 -3.095879,-0.29687 -3.095879,-0.29687 l 0.04241,14.54638 0.127226,1.52673 z"
         id="path8851"
         sodipodi:nodetypes="czzzzzcccc" />
      <path
         style="fill:#ff0000;stroke:none;stroke-width:0.264583px;stroke-linecap:butt;stroke-linejoin:miter;stroke-opacity:1"
         d="m 41.030969,211.00733 c -0.536598,-0.66827 -5.152727,-1.22987 -5.152727,-1.22987 l 4.983092,-1.3571 c 0,0 0.717117,3.2688 0.169635,2.58697 z"
         id="path9844"
         sodipodi:nodetypes="sccs" />
      <g
         id="g3760"
         transform="translate(0.763328,2e-4)">
        <ellipse
           style="fill:#800000;stroke:none;stroke-width:0.264583"
           id="path1206"
           cx="62.374794"
           cy="208.35582"
           rx="6.9571891"
           ry="7.5569463" />
        <path
           style="fill:#800000;stroke:none;stroke-width:0.264583px;stroke-linecap:butt;stroke-linejoin:miter;stroke-opacity:1"
           d="m 56.800566,212.76945 c -2.887038,-4.17871 -6.079077,-10.30759 -6.079077,-10.30759 0,0 3.186716,-0.022 10.276713,-1.40679 7.089998,-1.38477 -1.310598,15.89309 -4.197636,11.71438 z"
           id="path1321"
           sodipodi:nodetypes="zczz" />
      </g>
    </g>
  </g>
  <g
     inkscape:groupmode="layer"
     id="layer2"
     inkscape:label="Layer 2" />
</svg>
